<mxfile host="Electron" modified="2024-04-14T08:52:45.473Z" agent="Mozilla/5.0 (Macintosh; Intel Mac OS X 10_15_7) AppleWebKit/537.36 (KHTML, like Gecko) draw.io/24.2.5 Chrome/120.0.6099.109 Electron/28.1.0 Safari/537.36" etag="vBqD6zr-eMOP745ZnDOA" version="24.2.5" type="device">
  <diagram name="Страница — 1" id="zooOb2JaS0nuN87ePaTR">
    <mxGraphModel dx="869" dy="1843" grid="1" gridSize="10" guides="1" tooltips="1" connect="1" arrows="1" fold="1" page="1" pageScale="1" pageWidth="827" pageHeight="1169" math="0" shadow="0">
      <root>
        <mxCell id="0" />
        <mxCell id="1" parent="0" />
        <mxCell id="ftasIqGfCaVQyN5IPgBp-1" value="" style="rounded=1;whiteSpace=wrap;html=1;fillColor=none;strokeWidth=5;dashed=1;strokeColor=#d6b656;perimeterSpacing=0;" vertex="1" parent="1">
          <mxGeometry x="50" y="125" width="460" height="150" as="geometry" />
        </mxCell>
        <mxCell id="h7y08biMk-_zkrxYaWdD-1" style="edgeStyle=orthogonalEdgeStyle;curved=1;rounded=0;orthogonalLoop=1;jettySize=auto;html=1;exitX=0.5;exitY=0;exitDx=0;exitDy=0;entryX=0.5;entryY=1;entryDx=0;entryDy=0;strokeWidth=2;" parent="1" source="Y8340RkmN0ZcHOZTbGn5-2" target="Y8340RkmN0ZcHOZTbGn5-60" edge="1">
          <mxGeometry relative="1" as="geometry" />
        </mxCell>
        <mxCell id="Y8340RkmN0ZcHOZTbGn5-2" value="1" style="ellipse;whiteSpace=wrap;html=1;aspect=fixed;fontSize=20;strokeWidth=2;fillColor=#f5f5f5;fontColor=#333333;strokeColor=#666666;" parent="1" vertex="1">
          <mxGeometry x="80" y="160" width="80" height="80" as="geometry" />
        </mxCell>
        <mxCell id="Y8340RkmN0ZcHOZTbGn5-19" style="edgeStyle=none;rounded=0;orthogonalLoop=1;jettySize=auto;html=1;exitX=1;exitY=0.5;exitDx=0;exitDy=0;entryX=0;entryY=0.5;entryDx=0;entryDy=0;strokeWidth=2;" parent="1" source="Y8340RkmN0ZcHOZTbGn5-3" target="Y8340RkmN0ZcHOZTbGn5-5" edge="1">
          <mxGeometry relative="1" as="geometry" />
        </mxCell>
        <mxCell id="h7y08biMk-_zkrxYaWdD-6" style="edgeStyle=orthogonalEdgeStyle;curved=1;rounded=0;orthogonalLoop=1;jettySize=auto;html=1;exitX=0.5;exitY=0;exitDx=0;exitDy=0;entryX=0.5;entryY=1;entryDx=0;entryDy=0;strokeWidth=2;" parent="1" source="Y8340RkmN0ZcHOZTbGn5-3" target="Y8340RkmN0ZcHOZTbGn5-60" edge="1">
          <mxGeometry relative="1" as="geometry" />
        </mxCell>
        <mxCell id="Y8340RkmN0ZcHOZTbGn5-3" value="&lt;span style=&quot;color: rgb(0, 0, 0); font-family: Helvetica; font-size: 20px; font-style: normal; font-variant-ligatures: normal; font-variant-caps: normal; font-weight: 400; letter-spacing: normal; orphans: 2; text-align: center; text-indent: 0px; text-transform: none; widows: 2; word-spacing: 0px; -webkit-text-stroke-width: 0px; white-space: normal; background-color: rgb(251, 251, 251); text-decoration-thickness: initial; text-decoration-style: initial; text-decoration-color: initial; float: none; display: inline !important;&quot;&gt;2&lt;/span&gt;" style="ellipse;whiteSpace=wrap;html=1;aspect=fixed;fontSize=20;strokeWidth=2;fillColor=#f5f5f5;fontColor=#333333;strokeColor=#666666;" parent="1" vertex="1">
          <mxGeometry x="240" y="160" width="80" height="80" as="geometry" />
        </mxCell>
        <mxCell id="Y8340RkmN0ZcHOZTbGn5-59" style="edgeStyle=orthogonalEdgeStyle;curved=1;rounded=0;orthogonalLoop=1;jettySize=auto;html=1;exitX=0;exitY=1;exitDx=0;exitDy=0;entryX=1;entryY=1;entryDx=0;entryDy=0;strokeWidth=2;" parent="1" source="Y8340RkmN0ZcHOZTbGn5-5" target="Y8340RkmN0ZcHOZTbGn5-2" edge="1">
          <mxGeometry relative="1" as="geometry">
            <Array as="points">
              <mxPoint x="412" y="260" />
              <mxPoint x="148" y="260" />
            </Array>
          </mxGeometry>
        </mxCell>
        <mxCell id="h7y08biMk-_zkrxYaWdD-2" style="edgeStyle=orthogonalEdgeStyle;curved=1;rounded=0;orthogonalLoop=1;jettySize=auto;html=1;exitX=0.5;exitY=0;exitDx=0;exitDy=0;entryX=0.5;entryY=1;entryDx=0;entryDy=0;strokeWidth=2;" parent="1" source="Y8340RkmN0ZcHOZTbGn5-5" target="Y8340RkmN0ZcHOZTbGn5-61" edge="1">
          <mxGeometry relative="1" as="geometry" />
        </mxCell>
        <mxCell id="Y8340RkmN0ZcHOZTbGn5-5" value="&lt;span style=&quot;color: rgb(0, 0, 0); font-family: Helvetica; font-size: 20px; font-style: normal; font-variant-ligatures: normal; font-variant-caps: normal; font-weight: 400; letter-spacing: normal; orphans: 2; text-align: center; text-indent: 0px; text-transform: none; widows: 2; word-spacing: 0px; -webkit-text-stroke-width: 0px; white-space: normal; background-color: rgb(251, 251, 251); text-decoration-thickness: initial; text-decoration-style: initial; text-decoration-color: initial; float: none; display: inline !important;&quot;&gt;3&lt;/span&gt;" style="ellipse;whiteSpace=wrap;html=1;aspect=fixed;fontSize=20;strokeWidth=2;fillColor=#f5f5f5;fontColor=#333333;strokeColor=#666666;" parent="1" vertex="1">
          <mxGeometry x="400" y="160" width="80" height="80" as="geometry" />
        </mxCell>
        <mxCell id="Y8340RkmN0ZcHOZTbGn5-18" value="" style="endArrow=classic;html=1;rounded=0;exitX=1;exitY=0.5;exitDx=0;exitDy=0;entryX=0;entryY=0.5;entryDx=0;entryDy=0;strokeWidth=2;" parent="1" source="Y8340RkmN0ZcHOZTbGn5-2" target="Y8340RkmN0ZcHOZTbGn5-3" edge="1">
          <mxGeometry width="50" height="50" relative="1" as="geometry">
            <mxPoint x="340" y="370" as="sourcePoint" />
            <mxPoint x="390" y="320" as="targetPoint" />
          </mxGeometry>
        </mxCell>
        <mxCell id="h7y08biMk-_zkrxYaWdD-3" style="edgeStyle=orthogonalEdgeStyle;curved=1;rounded=0;orthogonalLoop=1;jettySize=auto;html=1;exitX=0.5;exitY=0;exitDx=0;exitDy=0;entryX=0.5;entryY=1;entryDx=0;entryDy=0;strokeWidth=2;" parent="1" source="Y8340RkmN0ZcHOZTbGn5-56" target="Y8340RkmN0ZcHOZTbGn5-2" edge="1">
          <mxGeometry relative="1" as="geometry" />
        </mxCell>
        <mxCell id="Y8340RkmN0ZcHOZTbGn5-56" value="C" style="ellipse;whiteSpace=wrap;html=1;aspect=fixed;fontSize=20;strokeWidth=2;fillColor=#dae8fc;strokeColor=#6c8ebf;" parent="1" vertex="1">
          <mxGeometry x="160" y="320" width="80" height="80" as="geometry" />
        </mxCell>
        <mxCell id="h7y08biMk-_zkrxYaWdD-4" style="edgeStyle=orthogonalEdgeStyle;curved=1;rounded=0;orthogonalLoop=1;jettySize=auto;html=1;exitX=0.5;exitY=0;exitDx=0;exitDy=0;entryX=0.5;entryY=1;entryDx=0;entryDy=0;strokeWidth=2;" parent="1" source="Y8340RkmN0ZcHOZTbGn5-57" target="Y8340RkmN0ZcHOZTbGn5-5" edge="1">
          <mxGeometry relative="1" as="geometry" />
        </mxCell>
        <mxCell id="h7y08biMk-_zkrxYaWdD-5" style="edgeStyle=orthogonalEdgeStyle;curved=1;rounded=0;orthogonalLoop=1;jettySize=auto;html=1;exitX=0.5;exitY=0;exitDx=0;exitDy=0;entryX=0.5;entryY=1;entryDx=0;entryDy=0;strokeWidth=2;" parent="1" source="Y8340RkmN0ZcHOZTbGn5-57" target="Y8340RkmN0ZcHOZTbGn5-3" edge="1">
          <mxGeometry relative="1" as="geometry" />
        </mxCell>
        <mxCell id="Y8340RkmN0ZcHOZTbGn5-57" value="D" style="ellipse;whiteSpace=wrap;html=1;aspect=fixed;fontSize=20;strokeWidth=2;fillColor=#dae8fc;strokeColor=#6c8ebf;" parent="1" vertex="1">
          <mxGeometry x="320" y="320" width="80" height="80" as="geometry" />
        </mxCell>
        <mxCell id="Y8340RkmN0ZcHOZTbGn5-60" value="A" style="ellipse;whiteSpace=wrap;html=1;aspect=fixed;fontSize=20;strokeWidth=2;fillColor=#d5e8d4;strokeColor=#82b366;" parent="1" vertex="1">
          <mxGeometry x="160" width="80" height="80" as="geometry" />
        </mxCell>
        <mxCell id="Y8340RkmN0ZcHOZTbGn5-61" value="B" style="ellipse;whiteSpace=wrap;html=1;aspect=fixed;fontSize=20;strokeWidth=2;fillColor=#d5e8d4;strokeColor=#82b366;" parent="1" vertex="1">
          <mxGeometry x="320" width="80" height="80" as="geometry" />
        </mxCell>
        <mxCell id="Y8340RkmN0ZcHOZTbGn5-68" value="" style="html=1;shadow=0;dashed=0;align=center;verticalAlign=middle;shape=mxgraph.arrows2.arrow;dy=0.6;dx=40;direction=south;notch=0;strokeWidth=2;" parent="1" vertex="1">
          <mxGeometry x="245" y="420" width="70" height="100" as="geometry" />
        </mxCell>
        <mxCell id="h7y08biMk-_zkrxYaWdD-9" style="edgeStyle=orthogonalEdgeStyle;curved=1;rounded=0;orthogonalLoop=1;jettySize=auto;html=1;exitX=0.5;exitY=0;exitDx=0;exitDy=0;entryX=0.5;entryY=1;entryDx=0;entryDy=0;strokeWidth=2;" parent="1" source="Y8340RkmN0ZcHOZTbGn5-71" target="Y8340RkmN0ZcHOZTbGn5-78" edge="1">
          <mxGeometry relative="1" as="geometry" />
        </mxCell>
        <mxCell id="h7y08biMk-_zkrxYaWdD-10" style="edgeStyle=orthogonalEdgeStyle;curved=1;rounded=0;orthogonalLoop=1;jettySize=auto;html=1;exitX=0.5;exitY=0;exitDx=0;exitDy=0;entryX=0.5;entryY=1;entryDx=0;entryDy=0;strokeWidth=2;" parent="1" source="Y8340RkmN0ZcHOZTbGn5-71" target="Y8340RkmN0ZcHOZTbGn5-77" edge="1">
          <mxGeometry relative="1" as="geometry" />
        </mxCell>
        <mxCell id="Y8340RkmN0ZcHOZTbGn5-71" value="1,2,3" style="ellipse;whiteSpace=wrap;html=1;aspect=fixed;fontSize=20;strokeWidth=2;fillColor=#f5f5f5;fontColor=#333333;strokeColor=#666666;" parent="1" vertex="1">
          <mxGeometry x="240" y="720" width="80" height="80" as="geometry" />
        </mxCell>
        <mxCell id="h7y08biMk-_zkrxYaWdD-7" style="edgeStyle=orthogonalEdgeStyle;curved=1;rounded=0;orthogonalLoop=1;jettySize=auto;html=1;exitX=0.5;exitY=0;exitDx=0;exitDy=0;entryX=0.5;entryY=1;entryDx=0;entryDy=0;strokeWidth=2;" parent="1" source="Y8340RkmN0ZcHOZTbGn5-75" target="Y8340RkmN0ZcHOZTbGn5-71" edge="1">
          <mxGeometry relative="1" as="geometry" />
        </mxCell>
        <mxCell id="Y8340RkmN0ZcHOZTbGn5-75" value="C" style="ellipse;whiteSpace=wrap;html=1;aspect=fixed;fontSize=20;strokeWidth=2;fillColor=#dae8fc;strokeColor=#6c8ebf;" parent="1" vertex="1">
          <mxGeometry x="160" y="880" width="80" height="80" as="geometry" />
        </mxCell>
        <mxCell id="h7y08biMk-_zkrxYaWdD-8" style="edgeStyle=orthogonalEdgeStyle;curved=1;rounded=0;orthogonalLoop=1;jettySize=auto;html=1;exitX=0.5;exitY=0;exitDx=0;exitDy=0;entryX=0.5;entryY=1;entryDx=0;entryDy=0;strokeWidth=2;" parent="1" source="Y8340RkmN0ZcHOZTbGn5-76" target="Y8340RkmN0ZcHOZTbGn5-71" edge="1">
          <mxGeometry relative="1" as="geometry" />
        </mxCell>
        <mxCell id="Y8340RkmN0ZcHOZTbGn5-76" value="D" style="ellipse;whiteSpace=wrap;html=1;aspect=fixed;fontSize=20;strokeWidth=2;fillColor=#dae8fc;strokeColor=#6c8ebf;" parent="1" vertex="1">
          <mxGeometry x="320" y="880" width="80" height="80" as="geometry" />
        </mxCell>
        <mxCell id="Y8340RkmN0ZcHOZTbGn5-77" value="A" style="ellipse;whiteSpace=wrap;html=1;aspect=fixed;fontSize=20;strokeWidth=2;fillColor=#d5e8d4;strokeColor=#82b366;" parent="1" vertex="1">
          <mxGeometry x="160" y="560" width="80" height="80" as="geometry" />
        </mxCell>
        <mxCell id="Y8340RkmN0ZcHOZTbGn5-78" value="B" style="ellipse;whiteSpace=wrap;html=1;aspect=fixed;fontSize=20;strokeWidth=2;fillColor=#d5e8d4;strokeColor=#82b366;" parent="1" vertex="1">
          <mxGeometry x="320" y="560" width="80" height="80" as="geometry" />
        </mxCell>
      </root>
    </mxGraphModel>
  </diagram>
</mxfile>
